<?xml version="1.0" encoding="UTF-8"?>
<svg xmlns="http://www.w3.org/2000/svg" xmlns:xlink="http://www.w3.org/1999/xlink" width="958" height="1158"><defs><style type="text/css"><![CDATA[@import url("https://atlas.mindmup.com/_resources/21/fonts.css")]]></style></defs><rect width="100%" height="100%" fill="#FFFFFF"/><g transform="translate(445,391)" style="fill:none;"><g transform="translate(-77,-214)"><path d="M140,49Q140,18 199,18" stroke="#707070" stroke-width="1" stroke-linecap="round"/></g><g transform="translate(-77,-198)"><path d="M140,33Q140,51 200,51" stroke="#707070" stroke-width="1" stroke-linecap="round"/></g><g transform="translate(122,-220)"><path d="M75,24L105,24" stroke="#707070" stroke-width="1" stroke-linecap="round"/></g><g transform="translate(-88,-67)"><path d="M165,44Q165,29 224,29" stroke="#707070" stroke-width="1" stroke-linecap="round"/></g><g transform="translate(-237,-56)"><path d="M159,33Q159,34 128,34" stroke="#707070" stroke-width="1" stroke-linecap="round"/></g><g transform="translate(136,-76)"><path d="M148,38Q148,33 189,33" stroke="#707070" stroke-width="1" stroke-linecap="round"/></g><g transform="translate(-415,-55)"><path d="M188,33L158,33" stroke="#707070" stroke-width="1" stroke-linecap="round"/></g><g transform="translate(-81,77)"><path d="M79,91Q79,-24 178,18" stroke="#707070" stroke-width="1" stroke-linecap="round"/></g><g transform="translate(-154,77)"><path d="M152,91Q152,-24 53,18" stroke="#707070" stroke-width="1" stroke-linecap="round"/></g><g transform="translate(-81,135)"><path d="M148,33Q148,34 178,34" stroke="#707070" stroke-width="1" stroke-linecap="round"/></g><g transform="translate(-304,135)"><path d="M233,33Q233,34 203,34" stroke="#707070" stroke-width="1" stroke-linecap="round"/></g><g transform="translate(-81,135)"><path d="M79,33Q79,150 178,108" stroke="#707070" stroke-width="1" stroke-linecap="round"/></g><g transform="translate(-191,135)"><path d="M189,33Q189,150 90,108" stroke="#707070" stroke-width="1" stroke-linecap="round"/></g><g transform="translate(-82,343)"><path d="M148,33Q148,34 178,34" stroke="#707070" stroke-width="1" stroke-linecap="round"/></g><g transform="translate(-216,343)"><path d="M144,33Q144,34 114,34" stroke="#707070" stroke-width="1" stroke-linecap="round"/></g><g transform="translate(-81,523)"><path d="M148,56Q148,18 178,18" stroke="#707070" stroke-width="1" stroke-linecap="round"/></g><g transform="translate(97,501)"><path d="M96,40Q96,15 126,15" stroke="#707070" stroke-width="1" stroke-linecap="round"/></g><g transform="translate(97,523)"><path d="M96,18Q96,43 126,43" stroke="#707070" stroke-width="1" stroke-linecap="round"/></g><g transform="translate(-275,546)"><path d="M204,33Q204,34 174,34" stroke="#707070" stroke-width="1" stroke-linecap="round"/></g><g transform="translate(-350,540)"><path d="M85,40Q85,15 55,15" stroke="#707070" stroke-width="1" stroke-linecap="round"/></g><g transform="translate(-377,562)"><path d="M112,18Q112,43 82,43" stroke="#707070" stroke-width="1" stroke-linecap="round"/></g><g transform="translate(-81,546)"><path d="M148,33Q148,73 178,73" stroke="#707070" stroke-width="1" stroke-linecap="round"/></g><g transform="translate(97,601)"><path d="M137,18L167,18" stroke="#707070" stroke-width="1" stroke-linecap="round"/></g><g transform="translate(-122,-361)"><path d="M121,84L120,163" stroke="#707070" stroke-width="1" stroke-linecap="square"/><path d="M125,150L120,163L115,150Z" fill="#707070" stroke="#707070" stroke-width="1"/></g><g transform="translate(-88,-198)"><path d="M86,66L88,142" stroke="#707070" stroke-width="1" stroke-linecap="square"/><path d="M92,129L88,142L83,129Z" fill="#707070" stroke="#707070" stroke-width="1"/></g><g transform="translate(-88,-56)"><path d="M88,66L86,191" stroke="#707070" stroke-width="1" stroke-linecap="square"/><path d="M91,178L86,191L81,178Z" fill="#707070" stroke="#707070" stroke-width="1"/></g><g transform="translate(-82,135)"><path d="M80,66L79,208" stroke="#707070" stroke-width="1" stroke-linecap="square"/><path d="M84,195L79,208L74,195Z" fill="#707070" stroke="#707070" stroke-width="1"/></g><g transform="translate(-82,343)"><path d="M79,66L80,203" stroke="#707070" stroke-width="1" stroke-linecap="square"/><path d="M85,190L80,203L75,190Z" fill="#707070" stroke="#707070" stroke-width="1"/></g><g transform="translate(-97,546)"><path d="M95,66L97,147" stroke="#707070" stroke-width="1" stroke-linecap="square"/><path d="M101,134L97,147L92,134Z" fill="#707070" stroke="#707070" stroke-width="1"/></g><g transform="translate(-122,-361)"><rect x="0" y="0" width="242" height="84" border="1" rx="10" ry="10" style="fill:#808080;stroke:#707070;stroke-width:1px;"/><text font-family="NotoSansMono, monospace" font-size="24" font-weight="bold" lengthAdjust="spacingAndGlyphs" style="fill:#000000;"><tspan y="30" x="121" text-anchor="middle" textLength="101">Machine</tspan><tspan y="66" x="121" text-anchor="middle" textLength="116">Learning</tspan></text></g><g transform="translate(-77,-198)"><rect x="0" y="0" width="150" height="66" border="1" rx="10" ry="10" style="fill:#0000FF;stroke:#707070;stroke-width:1px;"/><text font-family="NotoSans, 'Helvetica Neue', Roboto, Helvetica, Arial, sans-serif" font-size="18" font-weight="bold" lengthAdjust="spacingAndGlyphs" style="fill:#FFFFFF;"><tspan y="24" x="75" text-anchor="middle" textLength="53">Pick a</tspan><tspan y="51" x="75" text-anchor="middle" textLength="89">Language</tspan></text></g><g transform="translate(122,-233)"><rect x="0" y="19" width="85" height="35" border="1" rx="10" ry="10" style="fill:#FFFF00;stroke:#707070;stroke-width:1px;"/><text font-family="NotoSans, 'Helvetica Neue', Roboto, Helvetica, Arial, sans-serif" font-size="15" font-weight="bold" lengthAdjust="spacingAndGlyphs" style="fill:#000000;"><tspan y="40" x="43" text-anchor="middle" textLength="54">Python</tspan></text><g transform="translate(60,0)"><rect fill="#22aae0" rx="12" ry="12" x="0" y="0" width="24" height="24" labelWidth="0" standardDecorationsWidth="20" standardDecorationWidth="20" standardDecorationMargin="2"/><g transform="translate(2,2)"><text font-family="system-ui, emoji, System Emoji, Apple Color Emoji, Segoe UI Emoji, Segoe UI Symbol, Noto Emoji" font-size="18" font-weight="regular" lengthAdjust="spacing" text-anchor="middle" y="18" textLength="20" x="10" style="fill:black;">✅</text></g></g></g><g transform="translate(123,-165)"><rect x="0" y="0" width="69" height="35" border="1" rx="10" ry="10" style="fill:#FFFF00;stroke:#707070;stroke-width:1px;"/><text font-family="NotoSans, 'Helvetica Neue', Roboto, Helvetica, Arial, sans-serif" font-size="15" font-weight="bold" lengthAdjust="spacingAndGlyphs" style="fill:#000000;"><tspan y="21" x="35" text-anchor="middle" textLength="10">R</tspan></text></g><g transform="translate(227,-239)"><rect x="0" y="19" width="158" height="48" border="1" rx="10" ry="10" style="fill:#E0E0E0;stroke:#707070;stroke-width:1px;"/><text font-family="NotoSans, 'Helvetica Neue', Roboto, Helvetica, Arial, sans-serif" font-size="12" font-weight="bold" lengthAdjust="spacingAndGlyphs" style="fill:#000000;"><tspan y="37" x="79" text-anchor="middle" textLength="139">Sklearn (Python library</tspan><tspan y="55" x="79" text-anchor="middle" textLength="43">for ML)</tspan></text><g transform="translate(133,0)"><rect fill="#22aae0" rx="12" ry="12" x="0" y="0" width="24" height="24" labelWidth="0" standardDecorationsWidth="20" standardDecorationWidth="20" standardDecorationMargin="2"/><g transform="translate(2,2)"><text font-family="system-ui, emoji, System Emoji, Apple Color Emoji, Segoe UI Emoji, Segoe UI Symbol, Noto Emoji" font-size="18" font-weight="regular" lengthAdjust="spacing" text-anchor="middle" y="18" textLength="20" x="10" style="fill:black;">✅</text></g></g></g><g transform="translate(-88,-56)"><rect x="0" y="0" width="175" height="66" border="1" rx="10" ry="10" style="fill:#0000FF;stroke:#707070;stroke-width:1px;"/><text font-family="NotoSans, 'Helvetica Neue', Roboto, Helvetica, Arial, sans-serif" font-size="18" font-weight="bold" lengthAdjust="spacingAndGlyphs" style="fill:#FFFFFF;"><tspan y="24" x="88" text-anchor="middle" textLength="88">Maths for</tspan><tspan y="51" x="88" text-anchor="middle" textLength="162">Machine Learning</tspan></text></g><g transform="translate(136,-86)"><rect x="0" y="19" width="158" height="58" border="1" rx="10" ry="10" style="fill:#FFFF00;stroke:#707070;stroke-width:1px;"/><text font-family="NotoSans, 'Helvetica Neue', Roboto, Helvetica, Arial, sans-serif" font-size="15" font-weight="bold" lengthAdjust="spacingAndGlyphs" style="fill:#000000;"><tspan y="40" x="79" text-anchor="middle" textLength="95">Learn Linear</tspan><tspan y="63" x="79" text-anchor="middle" textLength="59">Algebra</tspan></text><g transform="translate(133,0)"><rect fill="#22aae0" rx="12" ry="12" x="0" y="0" width="24" height="24" labelWidth="0" standardDecorationsWidth="20" standardDecorationWidth="20" standardDecorationMargin="2"/><g transform="translate(2,2)"><text font-family="system-ui, emoji, System Emoji, Apple Color Emoji, Segoe UI Emoji, Segoe UI Symbol, Noto Emoji" font-size="18" font-weight="regular" lengthAdjust="spacing" text-anchor="middle" y="18" textLength="20" x="10" style="fill:black;">✅</text></g></g></g><g transform="translate(-237,-59)"><rect x="0" y="19" width="128" height="35" border="1" rx="10" ry="10" style="fill:#FFFF00;stroke:#707070;stroke-width:1px;"/><text font-family="NotoSans, 'Helvetica Neue', Roboto, Helvetica, Arial, sans-serif" font-size="15" font-weight="bold" lengthAdjust="spacingAndGlyphs" style="fill:#000000;"><tspan y="40" x="64" text-anchor="middle" textLength="116">Learn Statistics</tspan></text><g transform="translate(103,0)"><rect fill="#22aae0" rx="12" ry="12" x="0" y="0" width="24" height="24" labelWidth="0" standardDecorationsWidth="20" standardDecorationWidth="20" standardDecorationMargin="2"/><g transform="translate(2,2)"><text font-family="system-ui, emoji, System Emoji, Apple Color Emoji, Segoe UI Emoji, Segoe UI Symbol, Noto Emoji" font-size="18" font-weight="regular" lengthAdjust="spacing" text-anchor="middle" y="18" textLength="20" x="10" style="fill:black;">✅</text></g></g></g><g transform="translate(325,-76)"><rect x="0" y="0" width="158" height="66" border="1" rx="10" ry="10" style="fill:#E0E0E0;stroke:#707070;stroke-width:1px;"/><text font-family="NotoSans, 'Helvetica Neue', Roboto, Helvetica, Arial, sans-serif" font-size="12" font-weight="bold" lengthAdjust="spacingAndGlyphs" style="fill:#000000;"><tspan y="18" x="79" text-anchor="middle" textLength="139">Dot products, distance,</tspan><tspan y="36" x="79" text-anchor="middle" textLength="124">matrix factorization,</tspan><tspan y="54" x="79" text-anchor="middle" textLength="98">eigenvalues etc.</tspan></text></g><g transform="translate(-415,-55)"><rect x="0" y="0" width="158" height="66" border="1" rx="10" ry="10" style="fill:#E0E0E0;stroke:#707070;stroke-width:1px;"/><text font-family="NotoSans, 'Helvetica Neue', Roboto, Helvetica, Arial, sans-serif" font-size="12" font-weight="bold" lengthAdjust="spacingAndGlyphs" style="fill:#000000;"><tspan y="18" x="79" text-anchor="middle" textLength="138">basic understanding of</tspan><tspan y="36" x="79" text-anchor="middle" textLength="92">probability and</tspan><tspan y="54" x="79" text-anchor="middle" textLength="55">statistics</tspan></text></g><g transform="translate(-81,135)"><rect x="0" y="0" width="158" height="66" border="1" rx="10" ry="10" style="fill:#0000FF;stroke:#707070;stroke-width:1px;"/><text font-family="NotoSansMono, monospace" font-size="18" font-weight="bold" lengthAdjust="spacingAndGlyphs" style="fill:#FFFFFF;"><tspan y="24" x="79" text-anchor="middle" textLength="76">Core ML</tspan><tspan y="51" x="79" text-anchor="middle" textLength="108">Algorithms</tspan></text></g><g transform="translate(97,58)"><rect x="0" y="19" width="143" height="35" border="1" rx="10" ry="10" style="fill:#FFFF00;stroke:#707070;stroke-width:1px;"/><text font-family="NotoSans, 'Helvetica Neue', Roboto, Helvetica, Arial, sans-serif" font-size="15" font-weight="bold" lengthAdjust="spacingAndGlyphs" style="fill:#000000;"><tspan y="40" x="72" text-anchor="middle" textLength="131">Gradient Descent</tspan></text><g transform="translate(118,0)"><rect fill="#22aae0" rx="12" ry="12" x="0" y="0" width="24" height="24" labelWidth="0" standardDecorationsWidth="20" standardDecorationWidth="20" standardDecorationMargin="2"/><g transform="translate(2,2)"><text font-family="system-ui, emoji, System Emoji, Apple Color Emoji, Segoe UI Emoji, Segoe UI Symbol, Noto Emoji" font-size="18" font-weight="regular" lengthAdjust="spacing" text-anchor="middle" y="18" textLength="20" x="10" style="fill:black;">✅</text></g></g></g><g transform="translate(-154,58)"><rect x="0" y="19" width="53" height="35" border="1" rx="10" ry="10" style="fill:#FFFF00;stroke:#707070;stroke-width:1px;"/><text font-family="NotoSans, 'Helvetica Neue', Roboto, Helvetica, Arial, sans-serif" font-size="15" font-weight="bold" lengthAdjust="spacingAndGlyphs" style="fill:#000000;"><tspan y="40" x="27" text-anchor="middle" textLength="41">Slope</tspan></text><g transform="translate(28,0)"><rect fill="#22aae0" rx="12" ry="12" x="0" y="0" width="24" height="24" labelWidth="0" standardDecorationsWidth="20" standardDecorationWidth="20" standardDecorationMargin="2"/><g transform="translate(2,2)"><text font-family="system-ui, emoji, System Emoji, Apple Color Emoji, Segoe UI Emoji, Segoe UI Symbol, Noto Emoji" font-size="18" font-weight="regular" lengthAdjust="spacing" text-anchor="middle" y="18" textLength="20" x="10" style="fill:black;">✅</text></g></g></g><g transform="translate(97,132)"><rect x="0" y="19" width="300" height="35" border="1" rx="10" ry="10" style="fill:#FFFF00;stroke:#707070;stroke-width:1px;"/><text font-family="NotoSans, 'Helvetica Neue', Roboto, Helvetica, Arial, sans-serif" font-size="15" font-weight="bold" lengthAdjust="spacingAndGlyphs" style="fill:#000000;"><tspan y="40" x="150" text-anchor="middle" textLength="276">Supervised vs Unsupervised learning</tspan></text><g transform="translate(275,0)"><rect fill="#22aae0" rx="12" ry="12" x="0" y="0" width="24" height="24" labelWidth="0" standardDecorationsWidth="20" standardDecorationWidth="20" standardDecorationMargin="2"/><g transform="translate(2,2)"><text font-family="system-ui, emoji, System Emoji, Apple Color Emoji, Segoe UI Emoji, Segoe UI Symbol, Noto Emoji" font-size="18" font-weight="regular" lengthAdjust="spacing" text-anchor="middle" y="18" textLength="20" x="10" style="fill:black;">✅</text></g></g></g><g transform="translate(-304,132)"><rect x="0" y="19" width="203" height="35" border="1" rx="10" ry="10" style="fill:#FFFF00;stroke:#707070;stroke-width:1px;"/><text font-family="NotoSans, 'Helvetica Neue', Roboto, Helvetica, Arial, sans-serif" font-size="15" font-weight="bold" lengthAdjust="spacingAndGlyphs" style="fill:#000000;"><tspan y="40" x="102" text-anchor="middle" textLength="183">Reinforcement Learning</tspan></text><g transform="translate(178,0)"><rect fill="#22aae0" rx="12" ry="12" x="0" y="0" width="24" height="24" labelWidth="0" standardDecorationsWidth="20" standardDecorationWidth="20" standardDecorationMargin="2"/><g transform="translate(2,2)"><text font-family="system-ui, emoji, System Emoji, Apple Color Emoji, Segoe UI Emoji, Segoe UI Symbol, Noto Emoji" font-size="18" font-weight="regular" lengthAdjust="spacing" text-anchor="middle" y="18" textLength="20" x="10" style="fill:black;">✅</text></g></g></g><g transform="translate(97,206)"><rect x="0" y="19" width="233" height="35" border="1" rx="10" ry="10" style="fill:#FFFF00;stroke:#707070;stroke-width:1px;"/><text font-family="NotoSans, 'Helvetica Neue', Roboto, Helvetica, Arial, sans-serif" font-size="15" font-weight="bold" lengthAdjust="spacingAndGlyphs" style="fill:#000000;"><tspan y="40" x="117" text-anchor="middle" textLength="177">Basic Linear Regression</tspan></text><g transform="translate(208,0)"><rect fill="#22aae0" rx="12" ry="12" x="0" y="0" width="24" height="24" labelWidth="0" standardDecorationsWidth="20" standardDecorationWidth="20" standardDecorationMargin="2"/><g transform="translate(2,2)"><text font-family="system-ui, emoji, System Emoji, Apple Color Emoji, Segoe UI Emoji, Segoe UI Symbol, Noto Emoji" font-size="18" font-weight="regular" lengthAdjust="spacing" text-anchor="middle" y="18" textLength="20" x="10" style="fill:black;">✅</text></g></g></g><g transform="translate(-191,206)"><rect x="0" y="19" width="90" height="35" border="1" rx="10" ry="10" style="fill:#FFFF00;stroke:#707070;stroke-width:1px;"/><text font-family="NotoSans, 'Helvetica Neue', Roboto, Helvetica, Arial, sans-serif" font-size="15" font-weight="bold" lengthAdjust="spacingAndGlyphs" style="fill:#000000;"><tspan y="40" x="45" text-anchor="middle" textLength="78">Clustering</tspan></text><g transform="translate(65,0)"><rect fill="#22aae0" rx="12" ry="12" x="0" y="0" width="24" height="24" labelWidth="0" standardDecorationsWidth="20" standardDecorationWidth="20" standardDecorationMargin="2"/><g transform="translate(2,2)"><text font-family="system-ui, emoji, System Emoji, Apple Color Emoji, Segoe UI Emoji, Segoe UI Symbol, Noto Emoji" font-size="18" font-weight="regular" lengthAdjust="spacing" text-anchor="middle" y="18" textLength="20" x="10" style="fill:black;">✅</text></g></g></g><g transform="translate(-82,343)"><rect x="0" y="0" width="158" height="66" border="1" rx="10" ry="10" style="fill:#0000FF;stroke:#707070;stroke-width:1px;"/><text font-family="NotoSansMono, monospace" font-size="18" font-weight="bold" lengthAdjust="spacingAndGlyphs" style="fill:#FFFFFF;"><tspan y="24" x="79" text-anchor="middle" textLength="65">Python</tspan><tspan y="51" x="79" text-anchor="middle" textLength="98">Libraries</tspan></text></g><g transform="translate(96,340)"><rect x="0" y="19" width="114" height="35" border="1" rx="10" ry="10" style="fill:#FFFF00;stroke:#707070;stroke-width:1px;"/><text font-family="NotoSans, 'Helvetica Neue', Roboto, Helvetica, Arial, sans-serif" font-size="15" font-weight="bold" lengthAdjust="spacingAndGlyphs" style="fill:#000000;"><tspan y="40" x="57" text-anchor="middle" textLength="102">Learn Numpy</tspan></text><g transform="translate(89,0)"><rect fill="#22aae0" rx="12" ry="12" x="0" y="0" width="24" height="24" labelWidth="0" standardDecorationsWidth="20" standardDecorationWidth="20" standardDecorationMargin="2"/><g transform="translate(2,2)"><text font-family="system-ui, emoji, System Emoji, Apple Color Emoji, Segoe UI Emoji, Segoe UI Symbol, Noto Emoji" font-size="18" font-weight="regular" lengthAdjust="spacing" text-anchor="middle" y="18" textLength="20" x="10" style="fill:black;">✅</text></g></g></g><g transform="translate(-216,340)"><rect x="0" y="19" width="114" height="35" border="1" rx="10" ry="10" style="fill:#FFFF00;stroke:#707070;stroke-width:1px;"/><text font-family="NotoSans, 'Helvetica Neue', Roboto, Helvetica, Arial, sans-serif" font-size="15" font-weight="bold" lengthAdjust="spacingAndGlyphs" style="fill:#000000;"><tspan y="40" x="57" text-anchor="middle" textLength="102">Learn Pandas</tspan></text><g transform="translate(89,0)"><rect fill="#22aae0" rx="12" ry="12" x="0" y="0" width="24" height="24" labelWidth="0" standardDecorationsWidth="20" standardDecorationWidth="20" standardDecorationMargin="2"/><g transform="translate(2,2)"><text font-family="system-ui, emoji, System Emoji, Apple Color Emoji, Segoe UI Emoji, Segoe UI Symbol, Noto Emoji" font-size="18" font-weight="regular" lengthAdjust="spacing" text-anchor="middle" y="18" textLength="20" x="10" style="fill:black;">✅</text></g></g></g><g transform="translate(-81,546)"><rect x="0" y="0" width="158" height="66" border="1" rx="10" ry="10" style="fill:#0000FF;stroke:#707070;stroke-width:1px;"/><text font-family="NotoSansMono, monospace" font-size="18" font-weight="bold" lengthAdjust="spacingAndGlyphs" style="fill:#FFFFFF;"><tspan y="24" x="79" text-anchor="middle" textLength="54">Learn</tspan><tspan y="51" x="79" text-anchor="middle" textLength="108">Deployment</tspan></text></g><g transform="translate(97,504)"><rect x="0" y="19" width="106" height="35" border="1" rx="10" ry="10" style="fill:#FFFF00;stroke:#707070;stroke-width:1px;"/><text font-family="NotoSans, 'Helvetica Neue', Roboto, Helvetica, Arial, sans-serif" font-size="15" font-weight="bold" lengthAdjust="spacingAndGlyphs" style="fill:#000000;"><tspan y="40" x="53" text-anchor="middle" textLength="94">Frameworks</tspan></text><g transform="translate(81,0)"><rect fill="#22aae0" rx="12" ry="12" x="0" y="0" width="24" height="24" labelWidth="0" standardDecorationsWidth="20" standardDecorationWidth="20" standardDecorationMargin="2"/><g transform="translate(2,2)"><text font-family="system-ui, emoji, System Emoji, Apple Color Emoji, Segoe UI Emoji, Segoe UI Symbol, Noto Emoji" font-size="18" font-weight="regular" lengthAdjust="spacing" text-anchor="middle" y="18" textLength="20" x="10" style="fill:black;">✅</text></g></g></g><g transform="translate(223,501)"><rect x="0" y="0" width="55" height="30" border="1" rx="10" ry="10" style="fill:#E0E0E0;stroke:#707070;stroke-width:1px;"/><text font-family="NotoSans, 'Helvetica Neue', Roboto, Helvetica, Arial, sans-serif" font-size="12" font-weight="bold" lengthAdjust="spacingAndGlyphs" style="fill:#4F4F4F;"><tspan y="18" x="28" text-anchor="middle" textLength="43">Django</tspan></text></g><g transform="translate(223,551)"><rect x="0" y="0" width="43" height="30" border="1" rx="10" ry="10" style="fill:#E0E0E0;stroke:#707070;stroke-width:1px;"/><text font-family="NotoSans, 'Helvetica Neue', Roboto, Helvetica, Arial, sans-serif" font-size="12" font-weight="bold" lengthAdjust="spacingAndGlyphs" style="fill:#4F4F4F;"><tspan y="18" x="22" text-anchor="middle" textLength="31">Flask</tspan></text></g><g transform="translate(-275,562)"><rect x="0" y="0" width="174" height="35" border="1" rx="10" ry="10" style="fill:#FFFF00;stroke:#707070;stroke-width:1px;"/><text font-family="NotoSans, 'Helvetica Neue', Roboto, Helvetica, Arial, sans-serif" font-size="15" font-weight="bold" lengthAdjust="spacingAndGlyphs" style="fill:#000000;"><tspan y="21" x="87" text-anchor="middle" textLength="160">Deploying ML Models</tspan></text></g><g transform="translate(-350,540)"><rect x="0" y="0" width="55" height="30" border="1" rx="10" ry="10" style="fill:#E0E0E0;stroke:#707070;stroke-width:1px;"/><text font-family="NotoSans, 'Helvetica Neue', Roboto, Helvetica, Arial, sans-serif" font-size="12" font-weight="bold" lengthAdjust="spacingAndGlyphs" style="fill:#4F4F4F;"><tspan y="18" x="28" text-anchor="middle" textLength="43">Docker</tspan></text></g><g transform="translate(-377,590)"><rect x="0" y="0" width="82" height="30" border="1" rx="10" ry="10" style="fill:#E0E0E0;stroke:#707070;stroke-width:1px;"/><text font-family="NotoSans, 'Helvetica Neue', Roboto, Helvetica, Arial, sans-serif" font-size="12" font-weight="bold" lengthAdjust="spacingAndGlyphs" style="fill:#4F4F4F;"><tspan y="18" x="41" text-anchor="middle" textLength="70">Kubernetes</tspan></text></g><g transform="translate(97,601)"><rect x="0" y="0" width="147" height="35" border="1" rx="10" ry="10" style="fill:#FFFF00;stroke:#707070;stroke-width:1px;"/><text font-family="NotoSans, 'Helvetica Neue', Roboto, Helvetica, Arial, sans-serif" font-size="15" font-weight="bold" lengthAdjust="spacingAndGlyphs" style="fill:#000000;"><tspan y="21" x="74" text-anchor="middle" textLength="135">Custom Web Apps</tspan></text></g><g transform="translate(264,604)"><rect x="0" y="0" width="68" height="30" border="1" rx="10" ry="10" style="fill:#E0E0E0;stroke:#707070;stroke-width:1px;"/><text font-family="NotoSans, 'Helvetica Neue', Roboto, Helvetica, Arial, sans-serif" font-size="12" font-weight="bold" lengthAdjust="spacingAndGlyphs" style="fill:#4F4F4F;"><tspan y="18" x="34" text-anchor="middle" textLength="56">Streamlit</tspan></text></g><g transform="translate(-97,693)"><rect x="0" y="0" width="194" height="44" border="1" rx="10" ry="10" style="fill:#0000FF;stroke:#707070;stroke-width:1px;"/><text font-family="NotoSansMono, monospace" font-size="21" font-weight="bold" lengthAdjust="spacingAndGlyphs" style="fill:#FFFFFF;"><tspan y="27" x="97" text-anchor="middle" textLength="164">Keep Learning</tspan></text></g></g></svg>